<?xml  version="1.0" encoding="UTF-8"?>
<!DOCTYPE svg PUBLIC "-//W3C//DTD SVG 1.0//EN" "http://www.w3.org/TR/2001/REC-SVG-20010904/DTD/svg10.dtd" >
<svg xmlns="http://www.w3.org/2000/svg" >
<metadata>
<version>1.0</version>
<id><![CDATA[Proxima N W01 At Cd Black It]]></id>
<vendor>Monotype Imaging Inc.</vendor>
<credits>
<name>Fonts.com WebFonts</name>
<URL>http://webfonts.fonts.com</URL>
<role>Home of the Web fonts</role>
</credits>
<license>
<URL>http://webfonts.fonts.com/Legal</URL>
</license>
<copyright><![CDATA[Copyright (c) Mark Simonson, 2005. All rights reserved.]]></copyright>
<trademark><![CDATA[Proxima Nova is a trademark of Mark Simonson.]]></trademark>
<licensee>
<name></name>
</licensee>
</metadata>
<defs >
<font horiz-adv-x="489" id="f46fac33-ddab-4dd3-b227-9846bf8877df">
<font-face font-family="" panose-1="2 0 5 6 3 0 0 2 0 4" ascent="741" descent="-259" units-per-em="1000" alphabetic="0">
</font-face>
<missing-glyph horiz-adv-x="0" />

<glyph unicode="&#xA;" />
<glyph unicode="&#xD;" horiz-adv-x="0" />
<glyph unicode=" " horiz-adv-x="203" />
<glyph unicode="!" horiz-adv-x="276" d="M61 241L130 667H331L212 241H61ZM93 -13Q74 -13 57 -6T28 14T8 44T1 81Q1 103 10 123T34 158T69 182T112 191Q131 191 148 184T177 163T197 133T204 97Q204 74 195 54T171 19T136 -4T93 -13Z"  />
<glyph unicode="&quot;" horiz-adv-x="456" d="M111 347Q110 405 110 453V576Q110 597 118 615T140 647T172 669T211 677Q241 677 264 655T287 598Q287 587 284 578T279 563Q277 559 272 548T260 520T244 485T226 447Q205 402 180 347H111ZM321 347V453Q321 473 321 493T321 531T321 560T321 576Q321 597 329 615T350 647T382 669T421 677Q452 677 475 655T498 598Q498 587 495 578T489 563Q487 559 482 548T470 520T455 485T437 447Q416 402 391 347H321Z"  />
<glyph unicode="#" horiz-adv-x="567" d="M168 0L250 160H182L102 0H-18L63 160H-5L46 263H115L185 403H115L165 505H237L318 667H438L357 505H423L504 667H624L542 505H612L562 403H491L421 263H494L443 160H368L288 0H168ZM371 403H304L235 263H301L371 403Z"  />
<glyph unicode="$" horiz-adv-x="538" d="M160 -2Q103 10 58 35T-15 95L93 235Q120 199 167 177T263 155Q290 155 303 167T317 193Q317 208 299 220T254 245T195 273T136 311T91 364T73 439Q73 482 89 523T136 597T210 651T310 677L331 768H452L429 666Q471 655 508 635T574 585L469 446Q440 478 399 495T320 512Q297 512 285 501T273 476Q273 460 291 448T336 423T394 395T453 357T498 305T516 232Q516 185 500 143T452 67T377 14T279 -11L259 -100H138L160 -2Z"  />
<glyph unicode="%" horiz-adv-x="694" d="M77 0L579 667H658L154 0H77ZM484 -12Q453 -12 426 -3T380 25T349 68T337 123Q337 166 351 203T390 266T447 308T514 323Q545 323 572 314T618 287T649 244T661 188Q661 145 647 109T608 45T552 3T484 -12ZM490 88Q513 88 532 113T551 178Q551 199 540 211T508 223Q497 223 486 217T467 198T453 170T447 134Q447 113 458 101T490 88ZM218 342Q187 342 160 351T114 378T83 421T71 477Q71 520 85 557T124 620T180 662T248 677Q279 677 306 668T352 641T383 598T395 542Q395 498 381 462T342 399T286 357T218 342ZM224 442Q235 442 246 448T265 467T279 495T285 531Q285 552 274 564T242 577Q219 577 200 552T181 487Q181 466 192 454T224 442Z"  />
<glyph unicode="&amp;" horiz-adv-x="579" d="M344 0Q341 5 338 10T331 21Q299 5 265 -3T196 -12Q152 -12 116 -2T52 30T10 85T-5 163Q-5 211 9 246T48 308T103 354T169 387Q157 436 157 480Q157 523 173 559T216 621T281 662T362 677Q398 677 429 667T483 639T520 593T534 529Q534 488 518 459T477 407T418 370T350 340Q355 329 359 319T369 298Q375 284 381 271T394 243Q412 267 427 292T455 340L572 266Q546 224 518 187T457 117Q472 89 488 60T523 0H344ZM233 118Q251 118 271 127Q261 145 253 162T238 196Q230 213 223 231T208 267Q191 252 182 233T172 188Q172 157 189 138T233 118ZM313 482Q313 462 316 443Q348 457 368 475T389 520Q389 559 359 559Q341 559 327 538T313 482Z"  />
<glyph unicode="&apos;" horiz-adv-x="246" d="M111 347Q110 405 110 453V576Q110 597 118 615T140 647T172 669T211 677Q241 677 264 655T287 598Q287 587 284 578T279 563Q277 559 272 548T260 520T244 485T226 447Q205 402 180 347H111Z"  />
<glyph unicode="(" horiz-adv-x="327" d="M95 -199Q60 -141 42 -63T24 95Q24 179 42 260T95 416T179 559T289 685L389 605Q345 545 310 477T251 335T213 187T200 36Q200 17 202 -6T207 -53T214 -99T224 -141L95 -199Z"  />
<glyph unicode=")" horiz-adv-x="328" d="M232 685Q267 627 284 549T302 391Q302 307 284 226T231 70T148 -73T38 -199L-63 -119Q-18 -59 17 9T76 151T114 299T127 450Q127 469 125 492T120 539T112 585T102 627L232 685Z"  />
<glyph unicode="*" horiz-adv-x="352" d="M159 348L188 459L86 413L64 483L167 520L84 578L137 639L213 574L232 677H310L280 566L382 613L405 542L303 505L385 447L330 386L255 451L237 348H159Z"  />
<glyph unicode="+" horiz-adv-x="449" d="M289 288L252 123H142L179 288H39L60 387H201L236 544H346L311 387H451L429 288H289Z"  />
<glyph unicode="&#x2c;" horiz-adv-x="277" d="M210 91Q210 58 197 25T162 -39T108 -95T39 -139L-18 -80Q-5 -75 11 -67T42 -47T70 -23T91 4Q89 3 85 3T79 3Q48 3 25 22T2 84Q2 106 11 125T36 159T72 182T113 191Q132 191 149 185T180 166T202 135T210 91Z"  />
<glyph unicode="-" horiz-adv-x="274" d="M14 172L45 313H259L228 172H14Z"  />
<glyph unicode="." horiz-adv-x="276" d="M94 -13Q75 -13 58 -6T29 14T9 44T2 81Q2 103 11 123T35 158T70 182T113 191Q132 191 149 184T178 163T198 133T205 97Q205 74 196 54T172 19T137 -4T94 -13Z"  />
<glyph unicode="/" horiz-adv-x="308" d="M-60 -20L288 687H408L59 -20H-60Z"  />
<glyph unicode="0" horiz-adv-x="566" d="M254 -12Q204 -12 163 5T91 55T43 137T26 249Q26 335 51 412T119 549T222 642T351 677Q400 677 442 660T514 610T561 529T578 417Q578 331 554 254T486 117T383 23T254 -12ZM272 155Q300 155 322 187T359 264T382 357T390 437Q390 469 377 489T332 510Q313 510 297 495T268 456T245 402T227 340T217 279T213 229Q213 197 226 176T272 155Z"  />
<glyph unicode="1" horiz-adv-x="444" d="M153 0L246 426L127 327L45 439L326 667H489L342 0H153Z"  />
<glyph unicode="2" horiz-adv-x="557" d="M-19 0L21 180Q112 234 180 275T293 348T360 407T382 458Q382 483 360 497T302 511Q260 511 227 498T163 458L82 589Q127 629 189 653T320 677Q374 677 421 664T503 625T558 562T579 476Q579 430 561 391T508 315T420 242T299 165H513L477 0H-19Z"  />
<glyph unicode="3" horiz-adv-x="556" d="M265 -12Q221 -12 177 -3T95 23T27 66T-22 125L112 233Q125 213 143 199T181 175T223 160T264 155Q306 155 323 173T340 211Q340 229 323 241T258 253Q241 253 220 253T189 251L227 419Q230 419 240 419T262 418T285 418T303 418Q388 418 388 466Q388 488 364 499T295 511Q263 511 230 501T170 469L92 590Q134 629 192 653T320 677Q378 677 426 666T509 632T563 578T582 505Q582 470 567 442T527 392T472 356T411 338Q466 322 495 286T525 197Q525 150 504 112T448 46T365 3T265 -12Z"  />
<glyph unicode="4" horiz-adv-x="570" d="M245 0L270 114H-11L28 285L331 667H581L495 279H558L522 114H459L434 0H245ZM351 479L193 279H306L351 479Z"  />
<glyph unicode="5" horiz-adv-x="566" d="M269 -12Q171 -12 101 22T-7 117L130 228Q152 195 188 175T268 155Q310 155 331 176T353 227Q353 253 331 268T270 284Q239 284 219 275T179 248L54 292L137 667H599L563 502H289L266 394Q290 417 316 426T380 436Q417 436 448 424T502 389T538 331T551 254Q551 200 532 152T475 67T386 10T269 -12Z"  />
<glyph unicode="6" horiz-adv-x="562" d="M277 -12Q159 -12 91 54T23 247Q23 328 46 405T115 542T228 640T383 677Q452 677 504 656T595 598L479 465Q461 487 433 498T372 510Q327 510 291 482T238 410Q234 402 233 395T229 380Q254 410 291 426T370 442Q407 442 440 430T497 394T536 338T550 265Q550 210 530 160T472 72T385 11T277 -12ZM277 155Q294 155 308 162T332 180T347 205T353 233Q353 259 331 275T276 291Q255 291 239 283T209 261Q207 256 207 247T206 228Q206 193 226 174T277 155Z"  />
<glyph unicode="7" horiz-adv-x="517" d="M34 0L340 502H73L109 667H597L568 536L247 0H34Z"  />
<glyph unicode="8" horiz-adv-x="564" d="M264 -12Q208 -12 160 -2T75 29T19 83T-2 165Q-2 194 8 223T39 279T91 326T166 360Q129 377 105 410T80 487Q80 535 103 571T163 630T247 665T340 677Q386 677 431 668T514 639T574 586T597 506Q597 475 586 446T555 394T505 353T440 329Q488 304 511 266T535 186Q535 141 514 104T456 42T370 2T264 -12ZM318 408Q353 414 375 428T398 468Q398 488 380 499T332 510Q302 510 283 495T264 457Q264 439 282 427T318 408ZM269 155Q300 155 323 172T347 216Q347 238 327 251T287 270Q269 268 253 263T224 250T204 230T196 203Q196 155 269 155Z"  />
<glyph unicode="9" horiz-adv-x="562" d="M324 678Q442 678 510 612T578 419Q578 338 555 261T486 124T373 26T218 -11Q149 -11 97 10T6 68L122 201Q140 179 168 168T229 156Q274 156 310 184T363 256Q367 264 368 271T372 287Q347 256 310 240T231 224Q193 224 161 236T104 272T65 327T51 401Q51 456 71 506T129 594T215 655T324 678ZM324 511Q307 511 293 504T269 486T254 461T248 433Q248 407 270 391T325 375Q346 375 362 383T392 405Q394 411 394 420T395 438Q395 473 375 492T324 511Z"  />
<glyph unicode=":" horiz-adv-x="268" d="M95 -13Q56 -13 30 14T3 81Q3 103 12 123T36 158T71 182T114 191Q133 191 149 184T178 163T198 133T205 97Q205 74 196 54T172 19T137 -4T95 -13ZM160 287Q141 287 124 294T95 314T75 344T68 380Q68 402 77 422T101 457T136 481T179 490Q198 490 215 483T244 463T264 433T271 397Q271 374 262 354T238 319T203 296T160 287Z"  />
<glyph unicode=";" horiz-adv-x="276" d="M210 91Q210 58 197 25T162 -39T108 -95T39 -139L-18 -80Q-5 -75 11 -67T42 -47T70 -23T91 4Q89 3 85 3T79 3Q48 3 25 22T2 84Q2 106 11 125T36 159T72 182T113 191Q132 191 149 185T180 166T202 135T210 91ZM160 287Q141 287 124 294T95 314T75 344T68 380Q68 402 77 422T101 457T136 481T179 490Q198 490 215 483T244 463T264 433T271 397Q271 374 262 354T238 319T203 296T160 287Z"  />
<glyph unicode="&lt;" horiz-adv-x="449" d="M35 274L62 396L487 551L460 428L160 329L417 233L391 119L35 274Z"  />
<glyph unicode="=" horiz-adv-x="449" d="M58 376L80 476H470L449 376H58ZM17 192L39 292H430L408 192H17Z"  />
<glyph unicode="&gt;" horiz-adv-x="449" d="M1 119L28 242L329 339L71 437L96 551L453 396L426 274L1 119Z"  />
<glyph unicode="?" horiz-adv-x="396" d="M123 220Q118 232 116 249T113 284Q113 320 123 346T149 391T183 423T216 448T242 469T253 491Q253 516 216 516Q200 516 181 510T147 489L83 613Q126 648 172 662T264 677Q301 677 335 668T395 641T436 598T452 539Q452 500 439 472T405 423T362 385T318 353T285 321T271 282Q271 279 272 272T276 260L123 220ZM156 -13Q137 -13 120 -6T91 14T71 44T64 81Q64 103 73 123T97 158T132 182T175 191Q194 191 211 184T240 163T260 133T267 97Q267 74 258 54T234 19T199 -4T156 -13Z"  />
<glyph unicode="@" horiz-adv-x="731" d="M336 -70Q271 -70 219 -48T131 14T75 108T55 229Q55 310 86 384T170 514T293 604T441 638Q502 638 552 618T639 561T696 476T716 370Q716 307 698 255T651 165T586 106T511 85Q469 85 444 103T411 151L409 159Q386 125 355 105T283 85Q227 85 191 124T155 238Q155 287 171 334T215 417T282 475T364 497Q401 497 425 482T462 440L471 485H620L572 262Q571 258 570 249T569 236Q569 196 598 196Q609 196 621 208T644 242T660 297T667 370Q667 475 606 535T437 595Q368 595 307 565T199 484T126 368T99 232Q99 179 114 132T160 49T236 -7T341 -28Q389 -28 430 -14T512 26L535 -7Q489 -37 441 -53T336 -70ZM357 202Q381 202 396 216T421 245L442 348Q437 359 426 370T397 381Q376 381 359 370T331 340T314 301T308 259Q308 233 320 218T357 202Z"  />
<glyph unicode="A" horiz-adv-x="602" d="M362 0L361 86H184L146 0H-65L280 667H508L559 0H362ZM358 472L257 251H361L358 472Z"  />
<glyph unicode="B" horiz-adv-x="602" d="M-6 0L141 667H434Q482 667 517 654T576 618T611 566T623 507Q623 475 612 445T580 390T532 350T473 331Q520 318 543 282T566 201Q566 167 555 132T517 67T450 19T348 0H-6ZM368 420Q396 420 408 434T421 468Q421 484 410 493T379 502H293L276 420H368ZM317 165Q344 165 360 179T377 219Q377 255 334 255H239L219 165H317Z"  />
<glyph unicode="C" horiz-adv-x="586" d="M307 -12Q244 -12 192 7T103 62T46 148T25 260Q25 342 49 417T119 551T231 643T382 678Q446 678 492 658T569 605T617 533T641 453L463 407Q457 451 435 481T373 511Q339 511 311 489T262 432T231 353T219 265Q219 215 245 185T316 155Q345 155 374 176T421 232L571 154Q522 68 453 28T307 -12Z"  />
<glyph unicode="D" horiz-adv-x="634" d="M-6 0L141 667H389Q437 667 482 649T562 597T619 514T641 404Q641 333 622 262T557 132T435 37T246 0H-6ZM281 165Q322 165 353 185T405 237T436 311T447 396Q447 444 421 473T354 502H293L219 165H283H281Z"  />
<glyph unicode="E" horiz-adv-x="502" d="M-6 0L141 667H563L527 502H293L276 420H502L466 255H239L219 165H453L416 0H-6Z"  />
<glyph unicode="F" horiz-adv-x="497" d="M-6 0L141 667H563L527 502H293L276 420H502L466 255H239L183 0H-6Z"  />
<glyph unicode="G" horiz-adv-x="615" d="M291 -12Q232 -12 184 8T100 64T45 150T25 260Q25 345 50 421T123 554T240 644T397 678Q450 678 491 662T560 618T606 555T629 483L464 427Q459 460 435 485T376 511Q342 511 313 491T263 436T231 358T219 265Q219 215 244 185T316 155Q332 155 347 161T375 177T398 200T414 226H305L342 391H638Q620 284 591 208T519 83T420 11T291 -12Z"  />
<glyph unicode="H" horiz-adv-x="645" d="M354 0L412 260H240L183 0H-6L141 667H330L277 426H448L501 667H691L544 0H354Z"  />
<glyph unicode="I" horiz-adv-x="285" d="M-6 0L141 667H330L183 0H-6Z"  />
<glyph unicode="J" horiz-adv-x="439" d="M135 -12Q88 -12 41 0T-37 39L47 187Q59 173 79 164T119 155Q150 155 170 172T198 222L296 667H485L386 216Q359 98 300 43T135 -12Z"  />
<glyph unicode="K" horiz-adv-x="601" d="M348 0L275 231L218 159L183 0H-6L141 667H330L277 425L464 667H692L420 356L557 0H348Z"  />
<glyph unicode="L" horiz-adv-x="468" d="M-7 0L140 667H329L219 165H427L391 0H-7Z"  />
<glyph unicode="M" horiz-adv-x="790" d="M500 0L579 357L377 0H305L261 357L183 0H-6L141 667H383L418 375L584 667H835L688 0H500Z"  />
<glyph unicode="N" horiz-adv-x="645" d="M364 0L251 309L183 0H-6L141 667H333L437 377L501 667H690L543 0H364Z"  />
<glyph unicode="O" horiz-adv-x="649" d="M307 -12Q242 -12 190 8T102 64T45 150T25 260Q25 339 48 414T117 548T229 642T382 678Q446 678 498 658T586 601T643 515T663 406Q663 327 640 252T571 118T459 24T307 -12ZM316 155Q350 155 378 177T426 234T457 313T469 400Q469 449 443 480T371 511Q337 511 309 489T261 431T230 352T219 265Q219 217 245 186T316 155Z"  />
<glyph unicode="P" horiz-adv-x="582" d="M-6 0L141 667H420Q463 667 499 652T560 611T600 549T614 474Q614 430 599 385T550 302T462 240T330 216H230L183 0H-6ZM341 381Q374 381 396 402T418 453Q418 476 404 489T366 502H293L267 381H341Z"  />
<glyph unicode="Q" horiz-adv-x="650" d="M307 -12Q242 -12 190 8T102 64T45 150T25 260Q25 339 48 414T117 548T229 642T382 678Q446 678 498 658T586 601T643 515T663 406Q663 351 652 298T619 198T565 110T490 42L504 5L360 -42L348 -9Q327 -12 307 -12ZM403 274L421 226Q444 262 456 308T469 400Q469 449 443 480T371 511Q337 511 309 489T261 431T230 352T219 265Q219 226 236 198T284 160L259 227L403 274Z"  />
<glyph unicode="R" horiz-adv-x="597" d="M315 0L285 216H230L183 0H-6L141 667H408Q451 667 488 653T554 612T598 549T614 470Q614 429 602 392T569 324T523 273T470 241L518 0H315ZM342 381Q375 381 396 400T417 451Q417 476 402 489T365 502H293L267 381H342Z"  />
<glyph unicode="S" horiz-adv-x="529" d="M249 -12Q162 -12 90 17T-22 95L86 235Q113 199 160 177T256 155Q283 155 296 167T310 193Q310 208 292 220T247 245T188 273T129 311T84 364T66 439Q66 485 84 528T136 604T219 658T329 678Q396 678 459 654T567 585L462 446Q433 478 392 495T313 512Q290 512 278 501T266 476Q266 460 284 448T329 423T387 395T446 357T491 305T509 232Q509 182 491 138T439 61T357 8T249 -12Z"  />
<glyph unicode="T" horiz-adv-x="504" d="M104 0L214 502H75L112 667H579L542 502H404L293 0H104Z"  />
<glyph unicode="U" horiz-adv-x="652" d="M307 -12Q245 -12 197 4T114 49T62 118T44 209Q44 216 45 228T48 250L141 667H331L238 243Q237 238 236 232T235 220Q236 194 256 174T314 153Q356 153 380 177T413 243L507 667H697L604 247Q578 125 504 57T307 -12Z"  />
<glyph unicode="V" horiz-adv-x="602" d="M133 0L82 667H279L289 222L495 667H706L361 0H133Z"  />
<glyph unicode="W" horiz-adv-x="824" d="M422 0L437 360L293 0H100L89 667H287L267 285L430 667H573L567 285L715 667H920L616 0H422Z"  />
<glyph unicode="X" horiz-adv-x="603" d="M355 0L293 187L160 0H-65L211 352L94 667H299L352 493L470 667H696L435 332L561 0H355Z"  />
<glyph unicode="Y" horiz-adv-x="582" d="M143 0L201 267L81 667H279L325 439L471 667H686L390 267L332 0H143Z"  />
<glyph unicode="Z" horiz-adv-x="510" d="M-23 0L11 154L286 502H88L124 667H565L532 517L253 165H461L425 0H-23Z"  />
<glyph unicode="[" horiz-adv-x="271" d="M-52 -190L140 678H349L326 570H234L90 -82H181L156 -190H-52Z"  />
<glyph unicode="\" horiz-adv-x="308" d="M93 687H209L249 -20H133L93 687Z"  />
<glyph unicode="]" horiz-adv-x="271" d="M-78 -190L-54 -82H37L181 570H90L114 678H323L130 -190H-78Z"  />
<glyph unicode="^" horiz-adv-x="397" d="M284 333L269 545L160 333H38L232 667H353L397 333H284Z"  />
<glyph unicode="_" horiz-adv-x="422" d="M-90 -148L-65 -40H362L337 -148H-90Z"  />
<glyph unicode="`" horiz-adv-x="243" d="M204 556L101 700H243L312 556H204Z"  />
<glyph unicode="a" horiz-adv-x="509" d="M256 0L266 46Q246 20 213 4T141 -12Q113 -12 88 -3T44 23T14 65T2 122Q2 162 15 195T51 252T104 289T170 302Q212 302 248 289T310 246L319 285Q321 295 321 305Q321 331 296 346T236 362Q207 362 179 354T121 327L86 443Q126 471 176 483T276 495Q319 495 359 486T429 459T477 411T495 340Q495 333 494 318T489 291L425 0H256ZM225 98Q245 98 260 106T284 125L292 161Q284 175 267 183T228 192Q201 192 187 176T173 138Q173 98 225 98Z"  />
<glyph unicode="b" horiz-adv-x="533" d="M293 -12Q251 -12 219 3T169 53L157 0H-11L136 667H304L252 430Q280 465 309 480T371 495Q442 495 482 449T522 311Q522 260 508 204T466 99T394 20T293 -12ZM256 137Q278 137 295 151T323 186T341 233T347 280Q347 310 330 328T286 346Q268 346 253 337T226 313L194 170Q213 137 256 137Z"  />
<glyph unicode="c" horiz-adv-x="440" d="M237 -12Q185 -12 144 3T73 46T28 112T12 199Q12 259 32 312T88 406T174 471T283 495Q347 495 393 474T463 421L363 309Q352 326 333 336T291 346Q268 346 249 336T215 308T192 267T184 216Q184 178 208 158T267 137Q287 137 305 145T337 168L391 45Q368 23 329 6T237 -12Z"  />
<glyph unicode="d" horiz-adv-x="533" d="M239 495Q281 495 313 480T363 430L415 667H583L436 0H267L279 53Q251 18 222 3T160 -12Q90 -12 50 34T10 172Q10 223 24 279T66 384T138 463T239 495ZM276 346Q254 346 237 332T208 297T190 250T184 203Q184 173 201 155T246 137Q263 137 278 146T305 170L337 313Q328 330 312 338T276 346Z"  />
<glyph unicode="e" horiz-adv-x="494" d="M242 -12Q136 -12 74 43T12 199Q12 255 31 308T85 403T169 470T280 495Q376 495 429 441T482 293Q482 263 477 234T467 189H173V183Q173 178 177 168T193 147T222 129T267 121Q293 121 318 128T361 148L411 40Q377 14 332 1T242 -12ZM331 298Q332 300 332 303T332 308Q332 328 316 345T268 362Q251 362 238 356T215 341T200 320T192 298H331Z"  />
<glyph unicode="f" horiz-adv-x="322" d="M15 0L89 337H29L62 483H121L123 492Q143 584 189 630T312 677Q376 677 424 652L370 536Q365 540 357 542T343 544Q304 544 292 492L290 483H367L334 337H258L184 0H15Z"  />
<glyph unicode="g" horiz-adv-x="532" d="M179 -196Q110 -196 55 -178T-38 -120L50 -3Q70 -29 104 -43T174 -57Q191 -57 207 -52T236 -35T260 -2T278 51L284 80Q260 46 229 30T164 14Q98 14 55 56T12 188Q12 238 25 292T67 392T137 466T236 495Q253 495 271 491T307 479T338 459T361 430L374 483H542L446 51Q429 -25 400 -73T335 -148T259 -186T179 -196ZM250 163Q267 163 282 172T310 196L335 310Q314 346 270 346Q250 346 234 335T208 306T192 267T186 225Q186 196 203 180T250 163Z"  />
<glyph unicode="h" horiz-adv-x="537" d="M272 0L336 291Q337 294 337 300T338 310Q338 329 326 337T293 346Q272 346 255 332T225 304L158 0H-11L136 667H305L251 427Q274 452 309 473T392 495Q454 495 488 465T522 386Q522 379 521 371T518 354L441 0H272Z"  />
<glyph unicode="i" horiz-adv-x="254" d="M198 522Q160 522 136 546T112 603Q112 630 122 650T148 685T183 706T220 713Q258 713 282 689T306 631Q306 605 296 585T270 550T235 529T198 522ZM-11 0L96 483H264L157 0H-11Z"  />
<glyph unicode="j" horiz-adv-x="254" d="M-47 -196Q-126 -196 -165 -166L-107 -49Q-93 -63 -68 -63Q-26 -63 -11 4L96 483H264L158 4Q148 -41 133 -77T93 -140T35 -181T-47 -196ZM198 522Q160 522 136 546T112 603Q112 630 122 650T148 685T183 706T220 713Q258 713 282 689T306 631Q306 605 296 585T270 550T235 529T198 522Z"  />
<glyph unicode="k" horiz-adv-x="504" d="M266 0L230 164L181 106L157 0H-11L136 667H304L227 317L356 483H555L369 267L458 0H266Z"  />
<glyph unicode="l" horiz-adv-x="293" d="M175 -12Q100 -12 58 16T15 99Q15 107 16 119T20 144L136 667H304L198 185Q196 177 196 166Q196 152 205 145T230 137Q246 137 252 143L249 4Q239 -3 220 -7T175 -12Z"  />
<glyph unicode="m" horiz-adv-x="799" d="M534 0L598 291Q599 294 600 300T601 310Q601 327 590 336T560 346Q540 346 524 332T497 304L430 0H261L325 291Q327 294 327 300T328 311Q328 327 318 336T288 346Q267 346 251 332T225 304L157 0H-11L96 483H264L251 427Q261 439 275 451T306 472T343 488T387 495Q417 495 440 486T478 463T502 435T510 410V408Q534 441 572 468T659 495Q685 495 708 488T748 467T775 433T785 386Q785 378 784 368T781 354L703 0H534Z"  />
<glyph unicode="n" horiz-adv-x="537" d="M271 0L336 291Q338 301 338 310Q338 329 326 337T293 346Q272 346 255 332T225 304L157 0H-11L96 483H264L251 427Q274 452 309 473T392 495Q454 495 488 465T522 386Q522 381 521 371T518 354L440 0H271Z"  />
<glyph unicode="o" horiz-adv-x="518" d="M236 -12Q180 -12 138 4T68 48T26 116T12 201Q12 255 31 307T84 402T168 469T280 495Q336 495 378 479T449 435T491 367T505 282Q505 228 486 176T432 81T347 14T236 -12ZM244 137Q266 137 282 152T310 189T327 235T333 280Q333 346 272 346Q251 346 234 331T206 294T189 247T183 203Q183 170 199 154T244 137Z"  />
<glyph unicode="p" horiz-adv-x="532" d="M293 -12Q251 -12 219 3T169 53L116 -184H-52L96 483H264L252 430Q280 465 309 480T371 495Q442 495 482 449T522 311Q522 260 508 204T466 99T394 20T293 -12ZM256 137Q278 137 295 151T323 186T341 233T347 280Q347 310 330 328T286 346Q268 346 253 337T226 313L194 170Q213 137 256 137Z"  />
<glyph unicode="q" horiz-adv-x="532" d="M239 495Q281 495 313 480T363 430L374 483H542L395 -184H226L279 53Q251 18 222 3T160 -12Q90 -12 50 34T10 172Q10 223 24 279T66 384T138 463T239 495ZM276 346Q254 346 237 332T208 297T190 250T184 203Q184 173 201 155T246 137Q263 137 278 146T305 170L337 313Q328 330 312 338T276 346Z"  />
<glyph unicode="r" horiz-adv-x="350" d="M-11 0L96 483H264L252 428Q275 457 312 477T394 497L357 332Q351 334 341 336T316 339Q262 339 223 297L157 0H-11Z"  />
<glyph unicode="s" horiz-adv-x="439" d="M195 -12Q162 -12 130 -6T68 12T15 38T-25 71L64 184Q73 173 88 162T122 141T162 126T204 120Q222 120 232 126T243 142Q243 152 228 159T191 174T143 192T94 218T57 258T42 317Q42 351 54 383T92 440T156 480T244 495Q300 495 354 476T446 419L363 310Q356 317 344 326T315 344T281 357T243 363Q205 363 205 343Q205 334 220 328T258 314T307 296T357 269T395 229T410 169Q410 133 396 100T353 42T286 3T195 -12Z"  />
<glyph unicode="t" horiz-adv-x="330" d="M201 -12Q126 -12 84 15T41 100Q41 109 42 119T46 144L89 337H29L61 483H122L151 615H320L291 483H367L334 337H258L224 185Q223 181 223 177T223 169Q223 155 230 146T257 137Q262 137 269 139T278 143L275 4Q251 -12 201 -12Z"  />
<glyph unicode="u" horiz-adv-x="536" d="M264 483L200 192Q197 181 197 173Q197 155 209 146T242 137Q264 137 281 151T311 179L378 483H547L440 0H271L284 56Q261 31 226 10T143 -12Q81 -12 47 18T13 97Q13 102 14 112T17 129L95 483H264Z"  />
<glyph unicode="v" horiz-adv-x="490" d="M101 0L42 483H216L230 203L370 483H553L280 0H101Z"  />
<glyph unicode="w" horiz-adv-x="744" d="M387 0L377 268L249 0H69L46 483H215L213 214L341 483H494L507 214L625 483H805L568 0H387Z"  />
<glyph unicode="x" horiz-adv-x="473" d="M251 0L216 128L123 0H-63L129 245L52 483H228L258 363L341 483H527L342 245L428 0H251Z"  />
<glyph unicode="y" horiz-adv-x="536" d="M183 -196Q113 -196 57 -177T-34 -120L54 -3Q74 -29 110 -43T178 -57Q224 -57 246 -31T282 51L289 84Q266 59 231 38T149 17Q91 17 55 46T19 126Q19 140 23 157L96 483H264L206 221Q203 207 203 202Q203 182 216 174T249 166Q271 166 288 180T317 208L378 483H547L451 51Q424 -70 358 -133T183 -196Z"  />
<glyph unicode="z" horiz-adv-x="430" d="M-28 0L-1 124L198 337H46L79 483H453L427 364L223 146H382L350 0H-28Z"  />
<glyph unicode="{" horiz-adv-x="276" d="M133 -190Q105 -190 79 -181T33 -154T1 -114T-11 -63Q-11 -48 -8 -33L30 135Q31 140 31 144T32 152Q32 174 22 186T-8 199L12 289Q41 289 56 306T78 353L115 520Q133 600 183 639T312 678H355L331 570H288Q244 570 233 521L190 322Q182 289 167 265T124 232Q139 224 146 209T153 175Q153 167 152 159T149 141L112 -27Q111 -31 110 -35T109 -45Q109 -62 120 -72T147 -83H186L162 -190H133Z"  />
<glyph unicode="|" horiz-adv-x="203" d="M68 -20V687H175V-20H68Z"  />
<glyph unicode="}" horiz-adv-x="276" d="M142 678Q170 678 196 669T242 642T274 602T286 551Q286 544 285 537T282 521L245 353Q244 348 244 344T243 336Q243 314 253 302T283 289L263 199Q234 199 219 182T197 135L159 -32Q142 -112 92 -151T-37 -190H-80L-56 -82H-14Q30 -82 42 -33L85 166Q93 199 107 223T151 256Q136 264 129 279T122 313Q122 321 123 329T126 347L163 515Q164 519 165 523T166 533Q166 550 155 560T128 571H89L113 678H142Z"  />
<glyph unicode="~" horiz-adv-x="479" d="M545 656Q537 615 524 571T489 489T435 428T357 403Q322 403 303 415T275 445T264 485T260 525T257 556T244 568Q225 568 206 525T171 403L62 413Q69 455 83 499T119 581T173 643T251 667Q286 667 305 655T333 624T345 584T348 544T352 514T365 501Q383 501 403 545T438 667L545 656Z"  />
<glyph unicode="&#xA0;" horiz-adv-x="203" />
<glyph unicode="&#xA1;" horiz-adv-x="276" d="M213 242L145 -184H-57L62 242H213ZM181 496Q220 496 246 469T273 402Q273 380 264 360T240 325T205 301T162 292Q143 292 126 299T97 320T77 350T70 386Q70 408 79 428T103 463T139 487T181 496Z"  />
<glyph unicode="&#xA2;" horiz-adv-x="440" d="M139 4Q78 27 45 77T12 199Q12 254 29 304T77 394T151 460T247 493L264 565H383L364 484Q397 474 422 458T463 421L363 309Q352 326 333 336T291 346Q268 346 249 336T215 308T192 267T184 216Q184 178 208 158T267 137Q287 137 305 145T337 168L391 45Q370 25 335 9T254 -11L235 -100H116L139 4Z"  />
<glyph unicode="&#xA3;" horiz-adv-x="527" d="M57 379H97Q92 395 90 412T87 449Q87 501 110 543T170 615T254 661T352 677Q395 677 433 668T502 639T552 589T578 519L412 463Q409 495 395 510T358 525Q343 525 331 517T309 494T296 461T291 422Q291 410 293 400T297 379H398L375 276H295Q286 241 267 213T224 171Q248 178 263 178Q281 178 295 175T322 167T348 159T378 155Q403 155 418 163T448 184L472 32Q453 13 425 1T352 -12Q320 -12 292 -6T238 9T189 23T145 30Q120 30 97 22T45 -7L17 117Q65 143 93 182T122 270V276H34L57 379Z"  />
<glyph unicode="&#xA4;" horiz-adv-x="506" d="M253 222Q310 222 341 262T372 365Q372 395 364 421T341 467T304 498T253 509Q224 509 202 498T165 468T141 422T133 365Q133 334 141 308T164 263T202 233T253 222ZM19 168L88 239Q50 294 50 365Q50 436 88 489L19 560L64 603L131 534Q155 552 185 563T253 574Q289 574 320 563T375 534L442 603L487 560L418 489Q455 435 455 365Q455 330 445 298T417 240L487 168L442 125L374 194Q325 157 253 157Q181 157 132 194L64 125L19 168Z"  />
<glyph unicode="&#xA5;" horiz-adv-x="582" d="M142 0L165 109H-4L18 208H187L200 267H31L54 366H170L80 667H278L324 439L470 667H685L462 366H582L559 267H389L376 208H546L524 109H354L331 0H142Z"  />
<glyph unicode="&#xA6;" horiz-adv-x="203" d="M68 -20V296H175V-20H68ZM68 371V687H175V371H68Z"  />
<glyph unicode="&#xA7;" horiz-adv-x="445" d="M447 346Q447 295 418 255T341 192Q367 175 379 150T392 98Q392 59 376 27T332 -30T266 -67T182 -81Q111 -81 49 -61T-48 -3L41 100Q64 72 100 55T176 38Q201 38 213 49T226 74Q226 90 212 100T175 119T128 139T80 165T44 204T29 263Q29 313 57 351T139 409Q113 423 99 450T84 508Q84 545 99 576T142 630T206 664T285 677Q363 677 412 657T495 605L411 513Q391 536 359 548T295 561Q269 561 258 551T247 526Q247 512 262 503T299 484T347 465T395 439T432 402T447 346ZM282 305Q282 324 271 336T245 354Q216 348 204 332T191 296Q191 261 239 246Q260 254 271 270T282 305Z"  />
<glyph unicode="&#xA8;" horiz-adv-x="304" d="M421 626Q421 608 413 591T392 561T361 540T325 532Q293 532 272 553T251 607Q251 625 259 642T280 672T310 693T346 701Q378 701 399 680T421 626ZM219 626Q219 608 211 591T190 561T159 540T123 532Q91 532 70 553T48 607Q48 625 56 642T77 672T108 693T144 701Q176 701 197 680T219 626Z"  />
<glyph unicode="&#xA9;" horiz-adv-x="778" d="M754 334Q754 263 727 200T653 90T543 16T408 -11Q337 -11 274 16T165 90T91 200T64 334Q64 406 91 468T164 578T274 652T408 679Q480 679 543 652T653 578T727 469T754 334ZM713 334Q713 397 689 452T624 548T527 614T408 638Q345 638 290 614T194 549T129 452T105 334Q105 271 129 216T194 120T290 54T408 30Q471 30 526 54T623 119T689 216T713 334ZM537 180Q510 157 472 141T394 125Q351 125 316 138T255 176T217 234T203 307Q203 358 222 401T273 476T348 526T435 544Q486 544 528 524T597 463L554 432Q536 464 505 481T432 498Q400 498 369 484T312 445T272 385T256 309Q256 282 265 257T292 212T336 182T395 170Q428 170 457 184T508 219L537 180Z"  />
<glyph unicode="&#xAA;" horiz-adv-x="378" d="M252 555Q238 555 226 546T206 523T193 491T188 455Q188 434 199 423T227 412Q248 412 265 433L288 538Q282 546 272 550T252 555ZM430 640L361 326H241L248 359Q230 336 211 327T169 318Q127 318 96 347T64 441Q64 480 75 517T108 583T157 630T218 648Q244 648 266 639T304 607L311 640H430Z"  />
<glyph unicode="&#xAB;" horiz-adv-x="528" d="M114 63L29 243L194 420H335L166 239L249 63H114ZM320 63L235 243L400 420H540L372 239L454 63H320Z"  />
<glyph unicode="&#xAC;" horiz-adv-x="457" d="M408 192H306L346 376H58L80 476H470L408 192Z"  />
<glyph unicode="&#xAD;" horiz-adv-x="274" d="M14 172L45 313H259L228 172H14Z"  />
<glyph unicode="&#xAE;" horiz-adv-x="494" d="M508 465Q508 421 492 383T446 315T378 270T295 253Q251 253 213 269T146 315T101 382T84 465Q84 509 100 548T146 615T213 660T296 677Q340 677 379 661T446 616T491 548T508 465ZM474 465Q474 502 460 534T422 591T365 629T295 643Q258 643 226 629T170 591T132 535T118 465Q118 429 132 397T170 340T226 301T295 287Q332 287 364 301T421 339T460 396T474 465ZM328 343L286 439H245L224 343H187L240 586H334Q368 586 387 567T407 522Q407 504 400 489T382 463T356 446T327 440L371 343H328ZM368 519Q368 536 358 545T325 555H271L251 471H314Q338 471 353 485T368 519Z"  />
<glyph unicode="&#xAF;" horiz-adv-x="317" d="M77 591L97 683H413L393 591H77Z"  />
<glyph unicode="&#xB0;" horiz-adv-x="327" d="M373 531Q373 501 362 475T330 429T283 398T226 386Q196 386 170 397T124 428T93 474T81 531Q81 561 92 587T123 634T169 665T226 677Q256 677 283 666T330 634T361 588T373 531ZM287 531Q287 556 269 574T226 592Q202 592 185 574T168 531Q168 506 184 489T225 472Q250 472 268 489T287 531Z"  />
<glyph unicode="&#xB1;" horiz-adv-x="449" d="M293 308L256 142H146L183 308H43L65 407H205L241 564H350L315 407H455L434 308H293ZM-25 2L-3 102H388L366 2H-25Z"  />
<glyph unicode="&#xB2;" horiz-adv-x="367" d="M72 421L94 516Q169 562 213 591T281 639T312 670T320 695Q320 729 272 729Q246 729 221 718T177 688L125 770Q155 796 197 811T281 827Q317 827 347 819T400 796T434 758T447 708Q447 682 436 660T402 615T344 569T262 519H409L387 421H72Z"  />
<glyph unicode="&#xB3;" horiz-adv-x="367" d="M413 535Q413 512 402 490T371 451T321 424T254 414Q195 414 147 433T75 486L157 560Q174 535 198 524T247 512Q270 512 281 522T292 547Q292 561 276 568T231 575Q223 575 213 575T198 574L218 671Q221 671 228 671T243 670T258 670T270 670Q297 670 309 678T321 700Q321 715 305 722T266 729Q245 729 222 722T180 697L131 771Q160 798 199 812T278 827Q354 827 400 799T446 720Q446 703 440 686T420 655T388 631T341 619Q376 609 394 587T413 535Z"  />
<glyph unicode="&#xB4;" horiz-adv-x="243" d="M177 556H67L200 700H344L177 556Z"  />
<glyph unicode="&#xB5;" horiz-adv-x="536" d="M-52 -184L96 483H264L199 190Q193 161 203 149T238 137Q261 137 279 150T310 178L378 483H547L440 0H271L282 55Q262 34 229 16T154 -9L116 -184H-52Z"  />
<glyph unicode="&#xB6;" horiz-adv-x="449" d="M269 -100L422 591H352L198 -100H122L216 323Q188 323 163 334T120 367T90 416T79 479Q79 514 93 548T134 608T195 651T273 667H515L345 -100H269Z"  />
<glyph unicode="&#xB7;" horiz-adv-x="276" d="M128 143Q109 143 92 150T63 170T43 200T36 236Q36 258 45 278T69 314T104 338T147 347Q166 347 183 340T212 319T232 289T239 253Q239 230 230 210T206 175T171 152T128 143Z"  />
<glyph unicode="&#xB8;" horiz-adv-x="218" d="M28 -199Q-10 -199 -40 -187T-89 -157L-49 -100Q-33 -114 -14 -124T27 -134Q43 -134 53 -127T63 -107Q63 -99 58 -94T42 -89Q28 -89 20 -102L-30 -69L18 11H95L56 -48Q68 -39 83 -39Q107 -39 123 -56T140 -102Q140 -147 108 -173T28 -199Z"  />
<glyph unicode="&#xB9;" horiz-adv-x="303" d="M171 421L224 660L152 602L97 676L277 821H384L296 421H171Z"  />
<glyph unicode="&#xBA;" horiz-adv-x="369" d="M222 318Q148 318 108 358T67 459Q67 498 81 532T120 592T179 633T252 648Q327 648 367 608T407 508Q407 469 393 434T354 374T295 333T222 318ZM226 412Q242 412 253 423T272 450T282 483T286 512Q286 552 248 552Q232 552 221 541T202 514T192 481T188 452Q188 412 226 412Z"  />
<glyph unicode="&#xBB;" horiz-adv-x="528" d="M210 420L295 240L130 63H-11L158 245L75 420H210ZM415 420L500 240L335 63H195L363 245L281 420H415Z"  />
<glyph unicode="&#xBC;" horiz-adv-x="811" d="M202 0H125L627 667H706L202 0ZM721 74L705 0H582L597 74H421L441 162L632 400H793L743 170H782L761 74H721ZM643 279L556 170H619L643 279ZM137 267L190 506L118 448L63 522L243 667H350L262 267H137Z"  />
<glyph unicode="&#xBD;" horiz-adv-x="846" d="M202 0H125L627 667H706L202 0ZM458 0L480 95Q555 141 599 170T667 218T698 249T706 274Q706 308 658 308Q632 308 607 297T563 267L511 349Q541 375 583 390T667 406Q703 406 733 398T786 375T820 337T833 287Q833 261 822 239T788 194T730 148T648 98H795L773 0H458ZM137 267L190 506L118 448L63 522L243 667H350L262 267H137Z"  />
<glyph unicode="&#xBE;" horiz-adv-x="864" d="M256 0H179L681 667H760L256 0ZM774 74L758 0H635L650 74H474L494 162L685 400H846L796 170H835L814 74H774ZM696 279L609 170H672L696 279ZM379 381Q379 358 368 336T337 297T287 270T220 260Q161 260 113 279T41 332L123 406Q140 381 164 370T213 358Q236 358 247 368T258 393Q258 407 242 414T197 421Q189 421 179 421T164 420L184 517Q187 517 194 517T209 516T224 516T236 516Q263 516 275 524T287 546Q287 561 271 568T232 575Q211 575 188 568T146 543L97 617Q126 644 165 658T244 673Q320 673 366 645T412 566Q412 549 406 532T386 501T354 477T307 465Q342 455 360 433T379 381Z"  />
<glyph unicode="&#xBF;" horiz-adv-x="354" d="M272 262Q277 250 279 233T282 198Q282 162 272 136T246 91T212 59T179 34T153 13T142 -9Q142 -34 179 -34Q195 -34 214 -28T248 -7L312 -131Q269 -166 223 -180T131 -195Q94 -195 60 -186T0 -159T-41 -116T-57 -57Q-57 -18 -44 10T-10 59T33 97T77 129T110 161T124 200Q124 203 123 210T119 222L272 262ZM239 495Q258 495 275 488T304 468T324 438T331 401Q331 379 322 359T298 324T263 300T220 291Q201 291 184 298T155 319T135 349T128 385Q128 407 137 427T161 462T196 486T239 495Z"  />
<glyph unicode="&#xC0;" horiz-adv-x="602" d="M388 728L285 872H427L496 728H388ZM362 0L361 86H184L146 0H-65L280 667H508L559 0H362ZM358 472L257 251H361L358 472Z"  />
<glyph unicode="&#xC1;" horiz-adv-x="602" d="M430 728H320L453 872H597L430 728ZM362 0L361 86H184L146 0H-65L280 667H508L559 0H362ZM358 472L257 251H361L358 472Z"  />
<glyph unicode="&#xC2;" horiz-adv-x="602" d="M466 728L427 804L357 728H261L367 872H514L559 728H466ZM362 0L361 86H184L146 0H-65L280 667H508L559 0H362ZM358 472L257 251H361L358 472Z"  />
<glyph unicode="&#xC3;" horiz-adv-x="602" d="M473 726Q449 726 435 733T410 750T390 766T367 774Q346 774 337 732H252Q266 797 294 831T374 866Q398 866 412 859T437 842T457 826T481 818Q501 818 511 860H596Q582 795 553 761T473 726ZM362 0L361 86H184L146 0H-65L280 667H508L559 0H362ZM358 472L257 251H361L358 472Z"  />
<glyph unicode="&#xC4;" horiz-adv-x="602" d="M609 802Q609 784 601 767T580 737T549 716T513 708Q481 708 460 729T439 783Q439 801 447 818T468 848T498 869T534 877Q566 877 587 856T609 802ZM407 802Q407 784 399 767T378 737T347 716T311 708Q279 708 258 729T236 783Q236 801 244 818T265 848T296 869T332 877Q364 877 385 856T407 802ZM362 0L361 86H184L146 0H-65L280 667H508L559 0H362ZM358 472L257 251H361L358 472Z"  />
<glyph unicode="&#xC5;" horiz-adv-x="602" d="M411 692Q369 692 344 718T318 786Q318 809 327 829T352 866T388 891T432 900Q474 900 500 875T526 807Q526 784 517 763T492 726T455 701T411 692ZM420 763Q434 763 445 774T456 799Q456 813 448 821T425 830Q411 830 400 819T389 794Q389 780 397 772T420 763ZM362 0L361 86H184L146 0H-65L280 667H508L559 0H362ZM358 472L257 251H361L358 472Z"  />
<glyph unicode="&#xC6;" horiz-adv-x="828" d="M328 0L346 86H195L141 0H-68L395 667H897L861 502H627L610 420H836L800 255H573L553 165H787L750 0H328ZM428 459L297 251H383L428 459Z"  />
<glyph unicode="&#xC7;" horiz-adv-x="586" d="M295 -12L271 -48Q283 -39 298 -39Q322 -39 338 -56T355 -102Q355 -147 323 -173T243 -199Q205 -199 175 -187T126 -157L166 -100Q182 -114 201 -124T242 -134Q258 -134 268 -127T278 -107Q278 -99 273 -94T257 -89Q243 -89 235 -102L185 -69L225 -2Q133 20 79 88T25 260Q25 342 49 417T119 551T231 643T382 678Q446 678 492 658T569 605T617 533T641 453L463 407Q457 451 435 481T373 511Q339 511 311 489T262 432T231 353T219 265Q219 215 245 185T316 155Q345 155 374 176T421 232L571 154Q522 68 453 28T307 -12H295Z"  />
<glyph unicode="&#xC8;" horiz-adv-x="502" d="M346 728L243 872H385L454 728H346ZM-6 0L141 667H563L527 502H293L276 420H502L466 255H239L219 165H453L416 0H-6Z"  />
<glyph unicode="&#xC9;" horiz-adv-x="502" d="M390 728H280L413 872H557L390 728ZM-6 0L141 667H563L527 502H293L276 420H502L466 255H239L219 165H453L416 0H-6Z"  />
<glyph unicode="&#xCA;" horiz-adv-x="502" d="M422 728L383 804L313 728H217L323 872H470L515 728H422ZM-6 0L141 667H563L527 502H293L276 420H502L466 255H239L219 165H453L416 0H-6Z"  />
<glyph unicode="&#xCB;" horiz-adv-x="502" d="M569 802Q569 784 561 767T540 737T509 716T473 708Q441 708 420 729T399 783Q399 801 407 818T428 848T458 869T494 877Q526 877 547 856T569 802ZM367 802Q367 784 359 767T338 737T307 716T271 708Q239 708 218 729T196 783Q196 801 204 818T225 848T256 869T292 877Q324 877 345 856T367 802ZM-6 0L141 667H563L527 502H293L276 420H502L466 255H239L219 165H453L416 0H-6Z"  />
<glyph unicode="&#xCC;" horiz-adv-x="285" d="M227 728L124 872H266L335 728H227ZM-6 0L141 667H330L183 0H-6Z"  />
<glyph unicode="&#xCD;" horiz-adv-x="285" d="M273 728H163L296 872H440L273 728ZM-6 0L141 667H330L183 0H-6Z"  />
<glyph unicode="&#xCE;" horiz-adv-x="285" d="M305 728L266 804L196 728H100L206 872H353L398 728H305ZM-6 0L141 667H330L183 0H-6Z"  />
<glyph unicode="&#xCF;" horiz-adv-x="285" d="M450 801Q450 783 442 766T421 736T390 715T354 707Q322 707 301 728T280 782Q280 800 288 817T309 847T339 868T375 876Q407 876 428 855T450 801ZM248 801Q248 783 240 766T219 736T188 715T152 707Q120 707 99 728T77 782Q77 800 85 817T106 847T137 868T173 876Q205 876 226 855T248 801ZM-6 0L141 667H330L183 0H-6Z"  />
<glyph unicode="&#xD0;" horiz-adv-x="658" d="M18 0L75 259H11L44 408H108L165 667H413Q461 667 506 649T586 597T643 514T665 404Q665 333 646 262T581 132T459 37T270 0H18ZM263 259L243 165H305Q346 165 377 185T429 237T460 311T471 396Q471 444 445 473T378 502H317L296 408H389L356 259H263Z"  />
<glyph unicode="&#xD1;" horiz-adv-x="645" d="M493 726Q469 726 455 733T430 750T410 766T387 774Q366 774 357 732H272Q286 797 314 831T394 866Q418 866 432 859T457 842T477 826T501 818Q521 818 531 860H616Q602 795 573 761T493 726ZM364 0L251 309L183 0H-6L141 667H333L437 377L501 667H690L543 0H364Z"  />
<glyph unicode="&#xD2;" horiz-adv-x="649" d="M412 728L309 872H451L520 728H412ZM307 -12Q242 -12 190 8T102 64T45 150T25 260Q25 339 48 414T117 548T229 642T382 678Q446 678 498 658T586 601T643 515T663 406Q663 327 640 252T571 118T459 24T307 -12ZM316 155Q350 155 378 177T426 234T457 313T469 400Q469 449 443 480T371 511Q337 511 309 489T261 431T230 352T219 265Q219 217 245 186T316 155Z"  />
<glyph unicode="&#xD3;" horiz-adv-x="649" d="M454 728H344L477 872H621L454 728ZM307 -12Q242 -12 190 8T102 64T45 150T25 260Q25 339 48 414T117 548T229 642T382 678Q446 678 498 658T586 601T643 515T663 406Q663 327 640 252T571 118T459 24T307 -12ZM316 155Q350 155 378 177T426 234T457 313T469 400Q469 449 443 480T371 511Q337 511 309 489T261 431T230 352T219 265Q219 217 245 186T316 155Z"  />
<glyph unicode="&#xD4;" horiz-adv-x="649" d="M490 728L451 804L381 728H285L391 872H538L583 728H490ZM307 -12Q242 -12 190 8T102 64T45 150T25 260Q25 339 48 414T117 548T229 642T382 678Q446 678 498 658T586 601T643 515T663 406Q663 327 640 252T571 118T459 24T307 -12ZM316 155Q350 155 378 177T426 234T457 313T469 400Q469 449 443 480T371 511Q337 511 309 489T261 431T230 352T219 265Q219 217 245 186T316 155Z"  />
<glyph unicode="&#xD5;" horiz-adv-x="649" d="M497 726Q473 726 459 733T434 750T414 766T391 774Q370 774 361 732H276Q290 797 318 831T398 866Q422 866 436 859T461 842T481 826T505 818Q525 818 535 860H620Q606 795 577 761T497 726ZM307 -12Q242 -12 190 8T102 64T45 150T25 260Q25 339 48 414T117 548T229 642T382 678Q446 678 498 658T586 601T643 515T663 406Q663 327 640 252T571 118T459 24T307 -12ZM316 155Q350 155 378 177T426 234T457 313T469 400Q469 449 443 480T371 511Q337 511 309 489T261 431T230 352T219 265Q219 217 245 186T316 155Z"  />
<glyph unicode="&#xD6;" horiz-adv-x="649" d="M634 802Q634 784 626 767T605 737T574 716T538 708Q506 708 485 729T464 783Q464 801 472 818T493 848T523 869T559 877Q591 877 612 856T634 802ZM432 802Q432 784 424 767T403 737T372 716T336 708Q304 708 283 729T261 783Q261 801 269 818T290 848T321 869T357 877Q389 877 410 856T432 802ZM307 -12Q242 -12 190 8T102 64T45 150T25 260Q25 339 48 414T117 548T229 642T382 678Q446 678 498 658T586 601T643 515T663 406Q663 327 640 252T571 118T459 24T307 -12ZM316 155Q350 155 378 177T426 234T457 313T469 400Q469 449 443 480T371 511Q337 511 309 489T261 431T230 352T219 265Q219 217 245 186T316 155Z"  />
<glyph unicode="&#xD7;" horiz-adv-x="449" d="M235 263L93 147L31 223L175 341L89 451L167 515L253 405L396 521L457 445L314 327L399 217L321 153L235 263Z"  />
<glyph unicode="&#xD8;" horiz-adv-x="649" d="M307 -12Q253 -12 209 1T129 41L91 0H-25L69 103Q25 168 25 260Q25 339 48 414T117 548T229 642T382 678Q433 678 475 665T552 629L587 667H703L613 570Q637 536 650 495T663 406Q663 327 640 252T571 118T459 24T307 -12ZM316 155Q350 155 378 177T426 234T457 313T469 400Q469 408 468 412L253 177Q278 155 316 155ZM371 511Q337 511 309 489T261 432T230 353T219 266L428 493Q404 511 371 511Z"  />
<glyph unicode="&#xD9;" horiz-adv-x="652" d="M414 728L311 872H453L522 728H414ZM307 -12Q245 -12 197 4T114 49T62 118T44 209Q44 216 45 228T48 250L141 667H331L238 243Q237 238 236 232T235 220Q236 194 256 174T314 153Q356 153 380 177T413 243L507 667H697L604 247Q578 125 504 57T307 -12Z"  />
<glyph unicode="&#xDA;" horiz-adv-x="652" d="M456 728H346L479 872H623L456 728ZM307 -12Q245 -12 197 4T114 49T62 118T44 209Q44 216 45 228T48 250L141 667H331L238 243Q237 238 236 232T235 220Q236 194 256 174T314 153Q356 153 380 177T413 243L507 667H697L604 247Q578 125 504 57T307 -12Z"  />
<glyph unicode="&#xDB;" horiz-adv-x="652" d="M494 728L455 804L385 728H289L395 872H542L587 728H494ZM307 -12Q245 -12 197 4T114 49T62 118T44 209Q44 216 45 228T48 250L141 667H331L238 243Q237 238 236 232T235 220Q236 194 256 174T314 153Q356 153 380 177T413 243L507 667H697L604 247Q578 125 504 57T307 -12Z"  />
<glyph unicode="&#xDC;" horiz-adv-x="652" d="M636 802Q636 784 628 767T607 737T576 716T540 708Q508 708 487 729T466 783Q466 801 474 818T495 848T525 869T561 877Q593 877 614 856T636 802ZM434 802Q434 784 426 767T405 737T374 716T338 708Q306 708 285 729T263 783Q263 801 271 818T292 848T323 869T359 877Q391 877 412 856T434 802ZM307 -12Q245 -12 197 4T114 49T62 118T44 209Q44 216 45 228T48 250L141 667H331L238 243Q237 238 236 232T235 220Q236 194 256 174T314 153Q356 153 380 177T413 243L507 667H697L604 247Q578 125 504 57T307 -12Z"  />
<glyph unicode="&#xDD;" horiz-adv-x="582" d="M421 728H311L444 872H588L421 728ZM143 0L201 267L81 667H279L325 439L471 667H686L390 267L332 0H143Z"  />
<glyph unicode="&#xDE;" horiz-adv-x="582" d="M-6 0L141 667H330L308 569H398Q441 569 476 554T537 513T577 451T592 376Q592 331 577 285T527 201T439 141T309 117H209L183 0H-6ZM320 283Q353 283 374 303T396 355Q396 379 382 391T345 403H272L245 283H320Z"  />
<glyph unicode="&#xDF;" horiz-adv-x="638" d="M611 170Q611 136 596 103T554 45T489 4T405 -12Q339 -12 289 7T201 69L285 177Q305 153 333 137T396 121Q412 121 423 127T434 145Q434 155 422 162T392 176T352 192T313 215T282 249T270 300Q270 334 280 358T305 399T338 427T371 449T396 468T406 491Q406 507 389 517T340 528Q306 528 287 511T258 455L158 0H-10L90 455Q100 500 120 540T173 611T249 659T351 677Q395 677 437 665T511 632T564 581T584 515Q584 467 562 438T512 389T462 357T439 329Q439 320 451 314T483 302T525 286T566 262T598 225T611 170Z"  />
<glyph unicode="&#xE0;" horiz-adv-x="509" d="M304 556L201 700H343L412 556H304ZM256 0L266 46Q246 20 213 4T141 -12Q113 -12 88 -3T44 23T14 65T2 122Q2 162 15 195T51 252T104 289T170 302Q212 302 248 289T310 246L319 285Q321 295 321 305Q321 331 296 346T236 362Q207 362 179 354T121 327L86 443Q126 471 176 483T276 495Q319 495 359 486T429 459T477 411T495 340Q495 333 494 318T489 291L425 0H256ZM225 98Q245 98 260 106T284 125L292 161Q284 175 267 183T228 192Q201 192 187 176T173 138Q173 98 225 98Z"  />
<glyph unicode="&#xE1;" horiz-adv-x="509" d="M350 556H240L373 700H517L350 556ZM256 0L266 46Q246 20 213 4T141 -12Q113 -12 88 -3T44 23T14 65T2 122Q2 162 15 195T51 252T104 289T170 302Q212 302 248 289T310 246L319 285Q321 295 321 305Q321 331 296 346T236 362Q207 362 179 354T121 327L86 443Q126 471 176 483T276 495Q319 495 359 486T429 459T477 411T495 340Q495 333 494 318T489 291L425 0H256ZM225 98Q245 98 260 106T284 125L292 161Q284 175 267 183T228 192Q201 192 187 176T173 138Q173 98 225 98Z"  />
<glyph unicode="&#xE2;" horiz-adv-x="509" d="M385 556L346 632L276 556H180L286 700H433L478 556H385ZM256 0L266 46Q246 20 213 4T141 -12Q113 -12 88 -3T44 23T14 65T2 122Q2 162 15 195T51 252T104 289T170 302Q212 302 248 289T310 246L319 285Q321 295 321 305Q321 331 296 346T236 362Q207 362 179 354T121 327L86 443Q126 471 176 483T276 495Q319 495 359 486T429 459T477 411T495 340Q495 333 494 318T489 291L425 0H256ZM225 98Q245 98 260 106T284 125L292 161Q284 175 267 183T228 192Q201 192 187 176T173 138Q173 98 225 98Z"  />
<glyph unicode="&#xE3;" horiz-adv-x="509" d="M390 554Q366 554 352 561T327 578T307 594T284 602Q263 602 254 560H169Q183 625 211 659T291 694Q315 694 329 687T354 670T374 654T398 646Q418 646 428 688H513Q499 623 470 589T390 554ZM256 0L266 46Q246 20 213 4T141 -12Q113 -12 88 -3T44 23T14 65T2 122Q2 162 15 195T51 252T104 289T170 302Q212 302 248 289T310 246L319 285Q321 295 321 305Q321 331 296 346T236 362Q207 362 179 354T121 327L86 443Q126 471 176 483T276 495Q319 495 359 486T429 459T477 411T495 340Q495 333 494 318T489 291L425 0H256ZM225 98Q245 98 260 106T284 125L292 161Q284 175 267 183T228 192Q201 192 187 176T173 138Q173 98 225 98Z"  />
<glyph unicode="&#xE4;" horiz-adv-x="509" d="M525 626Q525 608 517 591T496 561T465 540T429 532Q397 532 376 553T355 607Q355 625 363 642T384 672T414 693T450 701Q482 701 503 680T525 626ZM323 626Q323 608 315 591T294 561T263 540T227 532Q195 532 174 553T152 607Q152 625 160 642T181 672T212 693T248 701Q280 701 301 680T323 626ZM256 0L266 46Q246 20 213 4T141 -12Q113 -12 88 -3T44 23T14 65T2 122Q2 162 15 195T51 252T104 289T170 302Q212 302 248 289T310 246L319 285Q321 295 321 305Q321 331 296 346T236 362Q207 362 179 354T121 327L86 443Q126 471 176 483T276 495Q319 495 359 486T429 459T477 411T495 340Q495 333 494 318T489 291L425 0H256ZM225 98Q245 98 260 106T284 125L292 161Q284 175 267 183T228 192Q201 192 187 176T173 138Q173 98 225 98Z"  />
<glyph unicode="&#xE5;" horiz-adv-x="509" d="M333 541Q291 541 266 567T240 635Q240 658 249 678T274 715T310 740T354 749Q396 749 422 724T448 656Q448 633 439 612T414 575T377 550T333 541ZM342 612Q356 612 367 623T378 648Q378 662 370 670T347 679Q333 679 322 668T311 643Q311 629 319 621T342 612ZM256 0L266 46Q246 20 213 4T141 -12Q113 -12 88 -3T44 23T14 65T2 122Q2 162 15 195T51 252T104 289T170 302Q212 302 248 289T310 246L319 285Q321 295 321 305Q321 331 296 346T236 362Q207 362 179 354T121 327L86 443Q126 471 176 483T276 495Q319 495 359 486T429 459T477 411T495 340Q495 333 494 318T489 291L425 0H256ZM225 98Q245 98 260 106T284 125L292 161Q284 175 267 183T228 192Q201 192 187 176T173 138Q173 98 225 98Z"  />
<glyph unicode="&#xE6;" horiz-adv-x="787" d="M466 189V183Q466 175 472 165T490 145T519 128T560 121Q581 121 607 127T654 148L704 40Q637 -12 543 -12Q421 -12 361 65Q319 27 268 8T157 -12Q126 -12 98 -3T49 24T15 67T2 126Q2 166 15 199T52 254T105 289T171 302Q213 302 251 287T310 246L318 280Q320 286 320 291T320 299Q320 325 296 341T235 357Q206 357 178 349T120 322L86 443Q128 472 177 483T277 495Q332 495 369 477T424 425Q454 454 494 474T586 495Q625 495 659 483T719 446T760 383T775 293Q775 267 770 237T760 189H466ZM624 298Q625 301 625 308Q625 328 608 345T563 362Q545 362 532 356T509 341T494 321T485 298H624ZM292 132Q291 134 291 138T291 146Q291 151 291 155T292 162Q283 177 265 184T228 192Q205 192 189 178T173 138Q173 118 187 108T225 98Q246 98 263 107T292 132Z"  />
<glyph unicode="&#xE7;" horiz-adv-x="440" d="M182 -199Q144 -199 114 -187T65 -157L105 -100Q121 -114 140 -124T181 -134Q197 -134 207 -127T217 -107Q217 -99 212 -94T196 -89Q182 -89 174 -102L124 -69L163 -3Q91 15 52 68T12 199Q12 259 32 312T88 406T174 471T283 495Q347 495 393 474T463 421L363 309Q352 326 333 336T291 346Q268 346 249 336T215 308T192 267T184 216Q184 178 208 158T267 137Q287 137 305 145T337 168L391 45Q368 23 329 6T237 -12H234L210 -48Q222 -39 237 -39Q261 -39 277 -56T294 -102Q294 -147 262 -173T182 -199Z"  />
<glyph unicode="&#xE8;" horiz-adv-x="494" d="M242 -12Q136 -12 74 43T12 199Q12 255 31 308T85 403T169 470T280 495Q376 495 429 441T482 293Q482 263 477 234T467 189H173V183Q173 178 177 168T193 147T222 129T267 121Q293 121 318 128T361 148L411 40Q377 14 332 1T242 -12ZM331 298Q332 300 332 303T332 308Q332 328 316 345T268 362Q251 362 238 356T215 341T200 320T192 298H331ZM303 556L200 700H342L411 556H303Z"  />
<glyph unicode="&#xE9;" horiz-adv-x="494" d="M242 -12Q136 -12 74 43T12 199Q12 255 31 308T85 403T169 470T280 495Q376 495 429 441T482 293Q482 263 477 234T467 189H173V183Q173 178 177 168T193 147T222 129T267 121Q293 121 318 128T361 148L411 40Q377 14 332 1T242 -12ZM331 298Q332 300 332 303T332 308Q332 328 316 345T268 362Q251 362 238 356T215 341T200 320T192 298H331ZM348 556H238L371 700H515L348 556Z"  />
<glyph unicode="&#xEA;" horiz-adv-x="494" d="M242 -12Q136 -12 74 43T12 199Q12 255 31 308T85 403T169 470T280 495Q376 495 429 441T482 293Q482 263 477 234T467 189H173V183Q173 178 177 168T193 147T222 129T267 121Q293 121 318 128T361 148L411 40Q377 14 332 1T242 -12ZM331 298Q332 300 332 303T332 308Q332 328 316 345T268 362Q251 362 238 356T215 341T200 320T192 298H331ZM379 556L340 632L270 556H174L280 700H427L472 556H379Z"  />
<glyph unicode="&#xEB;" horiz-adv-x="494" d="M242 -12Q136 -12 74 43T12 199Q12 255 31 308T85 403T169 470T280 495Q376 495 429 441T482 293Q482 263 477 234T467 189H173V183Q173 178 177 168T193 147T222 129T267 121Q293 121 318 128T361 148L411 40Q377 14 332 1T242 -12ZM331 298Q332 300 332 303T332 308Q332 328 316 345T268 362Q251 362 238 356T215 341T200 320T192 298H331ZM522 626Q522 608 514 591T493 561T462 540T426 532Q394 532 373 553T352 607Q352 625 360 642T381 672T411 693T447 701Q479 701 500 680T522 626ZM320 626Q320 608 312 591T291 561T260 540T224 532Q192 532 171 553T149 607Q149 625 157 642T178 672T209 693T245 701Q277 701 298 680T320 626Z"  />
<glyph unicode="&#xEC;" horiz-adv-x="254" d="M174 556L71 700H213L282 556H174ZM-11 0L96 483H264L157 0H-11Z"  />
<glyph unicode="&#xED;" horiz-adv-x="254" d="M217 556H107L240 700H384L217 556ZM-11 0L96 483H264L157 0H-11Z"  />
<glyph unicode="&#xEE;" horiz-adv-x="254" d="M253 556L214 632L144 556H48L154 700H301L346 556H253ZM-11 0L96 483H264L157 0H-11Z"  />
<glyph unicode="&#xEF;" horiz-adv-x="254" d="M396 626Q396 608 388 591T367 561T336 540T300 532Q268 532 247 553T226 607Q226 625 234 642T255 672T285 693T321 701Q353 701 374 680T396 626ZM194 626Q194 608 186 591T165 561T134 540T98 532Q66 532 45 553T23 607Q23 625 31 642T52 672T83 693T119 701Q151 701 172 680T194 626ZM-11 0L96 483H264L157 0H-11Z"  />
<glyph unicode="&#xF0;" horiz-adv-x="518" d="M156 546L270 580Q249 611 228 637L368 723Q390 699 408 676T442 630L522 654L538 581L480 564Q502 518 511 473T521 377Q521 308 505 239T454 114T366 23T240 -12Q185 -12 142 2T70 43T25 107T9 189Q9 236 25 282T69 364T138 423T229 446Q285 446 316 418T361 347Q359 385 345 428T309 513L172 472L156 546ZM243 137Q262 137 277 145T302 168T319 201T325 238Q325 261 310 279T259 297Q240 297 226 288T201 263T186 230T180 195Q180 137 243 137Z"  />
<glyph unicode="&#xF1;" horiz-adv-x="537" d="M276 0L341 291Q343 301 343 310Q343 329 331 337T298 346Q277 346 260 332T230 304L162 0H-6L101 483H269L256 427Q279 452 314 473T397 495Q459 495 493 465T527 386Q527 381 526 371T523 354L445 0H276ZM403 554Q379 554 365 561T340 578T320 594T297 602Q276 602 267 560H182Q196 625 224 659T304 694Q328 694 342 687T367 670T387 654T411 646Q431 646 441 688H526Q512 623 483 589T403 554Z"  />
<glyph unicode="&#xF2;" horiz-adv-x="518" d="M236 -12Q180 -12 138 4T68 48T26 116T12 201Q12 255 31 307T84 402T168 469T280 495Q336 495 378 479T449 435T491 367T505 282Q505 228 486 176T432 81T347 14T236 -12ZM244 137Q266 137 282 152T310 189T327 235T333 280Q333 346 272 346Q251 346 234 331T206 294T189 247T183 203Q183 170 199 154T244 137ZM307 556L204 700H346L415 556H307Z"  />
<glyph unicode="&#xF3;" horiz-adv-x="518" d="M236 -12Q180 -12 138 4T68 48T26 116T12 201Q12 255 31 307T84 402T168 469T280 495Q336 495 378 479T449 435T491 367T505 282Q505 228 486 176T432 81T347 14T236 -12ZM244 137Q266 137 282 152T310 189T327 235T333 280Q333 346 272 346Q251 346 234 331T206 294T189 247T183 203Q183 170 199 154T244 137ZM350 556H240L373 700H517L350 556Z"  />
<glyph unicode="&#xF4;" horiz-adv-x="518" d="M236 -12Q180 -12 138 4T68 48T26 116T12 201Q12 255 31 307T84 402T168 469T280 495Q336 495 378 479T449 435T491 367T505 282Q505 228 486 176T432 81T347 14T236 -12ZM244 137Q266 137 282 152T310 189T327 235T333 280Q333 346 272 346Q251 346 234 331T206 294T189 247T183 203Q183 170 199 154T244 137ZM385 556L346 632L276 556H180L286 700H433L478 556H385Z"  />
<glyph unicode="&#xF5;" horiz-adv-x="518" d="M236 -12Q180 -12 138 4T68 48T26 116T12 201Q12 255 31 307T84 402T168 469T280 495Q336 495 378 479T449 435T491 367T505 282Q505 228 486 176T432 81T347 14T236 -12ZM244 137Q266 137 282 152T310 189T327 235T333 280Q333 346 272 346Q251 346 234 331T206 294T189 247T183 203Q183 170 199 154T244 137ZM392 554Q368 554 354 561T329 578T309 594T286 602Q265 602 256 560H171Q185 625 213 659T293 694Q317 694 331 687T356 670T376 654T400 646Q420 646 430 688H515Q501 623 472 589T392 554Z"  />
<glyph unicode="&#xF6;" horiz-adv-x="518" d="M236 -12Q180 -12 138 4T68 48T26 116T12 201Q12 255 31 307T84 402T168 469T280 495Q336 495 378 479T449 435T491 367T505 282Q505 228 486 176T432 81T347 14T236 -12ZM244 137Q266 137 282 152T310 189T327 235T333 280Q333 346 272 346Q251 346 234 331T206 294T189 247T183 203Q183 170 199 154T244 137ZM528 626Q528 608 520 591T499 561T468 540T432 532Q400 532 379 553T358 607Q358 625 366 642T387 672T417 693T453 701Q485 701 506 680T528 626ZM326 626Q326 608 318 591T297 561T266 540T230 532Q198 532 177 553T155 607Q155 625 163 642T184 672T215 693T251 701Q283 701 304 680T326 626Z"  />
<glyph unicode="&#xF7;" horiz-adv-x="443" d="M39 288L60 387H445L423 288H39ZM199 106Q172 106 153 125T133 172Q133 204 156 227T213 251Q240 251 259 231T279 184Q279 168 273 154T255 129T230 112T199 106ZM270 423Q242 423 223 442T204 490Q204 506 210 520T227 545T252 562T283 569Q310 569 329 549T349 502Q349 469 326 446T270 423Z"  />
<glyph unicode="&#xF8;" horiz-adv-x="518" d="M-36 0L44 79Q12 131 12 201Q12 255 31 307T84 402T168 469T280 495Q370 495 426 453L456 483H553L472 404Q505 353 505 282Q505 228 486 176T432 81T347 14T236 -12Q190 -12 154 -2T90 29L60 0H-36ZM244 137Q264 137 279 150T306 182T324 224T332 267L208 146Q223 137 244 137ZM272 346Q252 346 237 333T210 301T192 258T183 215L307 337Q293 346 272 346Z"  />
<glyph unicode="&#xF9;" horiz-adv-x="536" d="M264 483L200 192Q197 181 197 173Q197 155 209 146T242 137Q264 137 281 151T311 179L378 483H547L440 0H271L284 56Q261 31 226 10T143 -12Q81 -12 47 18T13 97Q13 102 14 112T17 129L95 483H264ZM316 556L213 700H355L424 556H316Z"  />
<glyph unicode="&#xFA;" horiz-adv-x="536" d="M264 483L200 192Q197 181 197 173Q197 155 209 146T242 137Q264 137 281 151T311 179L378 483H547L440 0H271L284 56Q261 31 226 10T143 -12Q81 -12 47 18T13 97Q13 102 14 112T17 129L95 483H264ZM360 556H250L383 700H527L360 556Z"  />
<glyph unicode="&#xFB;" horiz-adv-x="536" d="M264 483L200 192Q197 181 197 173Q197 155 209 146T242 137Q264 137 281 151T311 179L378 483H547L440 0H271L284 56Q261 31 226 10T143 -12Q81 -12 47 18T13 97Q13 102 14 112T17 129L95 483H264ZM395 556L356 632L286 556H190L296 700H443L488 556H395Z"  />
<glyph unicode="&#xFC;" horiz-adv-x="536" d="M264 483L200 192Q197 181 197 173Q197 155 209 146T242 137Q264 137 281 151T311 179L378 483H547L440 0H271L284 56Q261 31 226 10T143 -12Q81 -12 47 18T13 97Q13 102 14 112T17 129L95 483H264ZM539 626Q539 608 531 591T510 561T479 540T443 532Q411 532 390 553T369 607Q369 625 377 642T398 672T428 693T464 701Q496 701 517 680T539 626ZM337 626Q337 608 329 591T308 561T277 540T241 532Q209 532 188 553T166 607Q166 625 174 642T195 672T226 693T262 701Q294 701 315 680T337 626Z"  />
<glyph unicode="&#xFD;" horiz-adv-x="536" d="M359 556H249L382 700H526L359 556ZM183 -196Q113 -196 57 -177T-34 -120L54 -3Q74 -29 110 -43T178 -57Q224 -57 246 -31T282 51L289 84Q266 59 231 38T149 17Q91 17 55 46T19 126Q19 140 23 157L96 483H264L206 221Q203 207 203 202Q203 182 216 174T249 166Q271 166 288 180T317 208L378 483H547L451 51Q424 -70 358 -133T183 -196Z"  />
<glyph unicode="&#xFE;" horiz-adv-x="532" d="M293 -12Q251 -12 219 3T169 53L116 -184H-52L136 667H304L252 430Q280 465 309 480T371 495Q442 495 482 449T522 311Q522 260 508 204T466 99T394 20T293 -12ZM256 137Q278 137 295 151T323 186T341 233T347 280Q347 310 330 328T286 346Q268 346 253 337T226 313L194 170Q213 137 256 137Z"  />
<glyph unicode="&#xFF;" horiz-adv-x="536" d="M536 626Q536 608 528 591T507 561T476 540T440 532Q408 532 387 553T366 607Q366 625 374 642T395 672T425 693T461 701Q493 701 514 680T536 626ZM334 626Q334 608 326 591T305 561T274 540T238 532Q206 532 185 553T163 607Q163 625 171 642T192 672T223 693T259 701Q291 701 312 680T334 626ZM183 -196Q113 -196 57 -177T-34 -120L54 -3Q74 -29 110 -43T178 -57Q224 -57 246 -31T282 51L289 84Q266 59 231 38T149 17Q91 17 55 46T19 126Q19 140 23 157L96 483H264L206 221Q203 207 203 202Q203 182 216 174T249 166Q271 166 288 180T317 208L378 483H547L451 51Q424 -70 358 -133T183 -196Z"  />
<glyph unicode="&#x152;" horiz-adv-x="873" d="M373 0L381 42Q356 15 320 2T244 -12Q199 -12 159 7T89 61T42 146T24 260Q24 339 49 414T120 547T227 641T365 677Q412 677 449 661T509 616L520 667H943L906 502H673L655 420H882L845 255H618L599 165H832L796 0H373ZM470 439Q459 476 434 493T376 510Q339 510 310 485T260 423T229 343T218 265Q218 214 244 185T312 155Q343 155 371 171T421 220L470 439Z"  />
<glyph unicode="&#x153;" horiz-adv-x="807" d="M490 189V183Q490 176 495 166T511 145T539 128T581 121Q604 121 630 128T674 148L724 40Q692 14 648 1T557 -12Q499 -12 458 8T395 60Q361 28 324 8T234 -12Q128 -12 70 46T12 201Q12 255 30 307T82 401T166 469T278 495Q330 495 371 475T437 423Q466 453 505 474T595 495Q636 495 672 484T736 447T779 384T795 293Q795 264 790 238T780 189H490ZM644 298Q645 300 645 303T645 308Q645 317 642 326T632 344T613 357T584 362Q567 362 554 356T532 341T517 320T509 298H644ZM329 280Q329 309 314 327T269 346Q249 346 233 332T206 297T189 251T183 203Q183 174 197 156T243 137Q264 137 280 151T307 188T323 234T329 280Z"  />
<glyph unicode="&#x160;" horiz-adv-x="528" d="M308 728L263 872H355L394 796L464 872H561L455 728H308ZM249 -12Q162 -12 90 17T-22 95L86 235Q113 199 160 177T256 155Q283 155 296 167T310 193Q310 208 292 220T247 245T188 273T129 311T84 364T66 439Q66 485 84 528T136 604T219 658T329 678Q396 678 459 654T567 585L462 446Q433 478 392 495T313 512Q290 512 278 501T266 476Q266 460 284 448T329 423T387 395T446 357T491 305T509 232Q509 182 491 138T439 61T357 8T249 -12Z"  />
<glyph unicode="&#x161;" horiz-adv-x="439" d="M195 -12Q162 -12 130 -6T68 12T15 38T-25 71L64 184Q73 173 88 162T122 141T162 126T204 120Q222 120 232 126T243 142Q243 152 228 159T191 174T143 192T94 218T57 258T42 317Q42 351 54 383T92 440T156 480T244 495Q300 495 354 476T446 419L363 310Q356 317 344 326T315 344T281 357T243 363Q205 363 205 343Q205 334 220 328T258 314T307 296T357 269T395 229T410 169Q410 133 396 100T353 42T286 3T195 -12ZM219 556L174 700H266L305 624L375 700H472L366 556H219Z"  />
<glyph unicode="&#x178;" horiz-adv-x="582" d="M600 802Q600 784 592 767T571 737T540 716T504 708Q472 708 451 729T430 783Q430 801 438 818T459 848T489 869T525 877Q557 877 578 856T600 802ZM398 802Q398 784 390 767T369 737T338 716T302 708Q270 708 249 729T227 783Q227 801 235 818T256 848T287 869T323 877Q355 877 376 856T398 802ZM143 0L201 267L81 667H279L325 439L471 667H686L390 267L332 0H143Z"  />
<glyph unicode="&#x17D;" horiz-adv-x="510" d="M290 728L245 872H337L376 796L446 872H543L437 728H290ZM-23 0L11 154L286 502H88L124 667H565L532 517L253 165H461L425 0H-23Z"  />
<glyph unicode="&#x17E;" horiz-adv-x="430" d="M-28 0L-1 124L198 337H46L79 483H453L427 364L223 146H382L350 0H-28ZM208 556L163 700H255L294 624L364 700H461L355 556H208Z"  />
<glyph unicode="&#x192;" horiz-adv-x="456" d="M-56 -161L29 226H-10V373H62L92 513Q109 587 155 632T280 677Q315 677 352 668T418 638L362 497Q348 512 324 512Q287 512 276 466L256 373H334V226H223L137 -161H-56Z"  />
<glyph unicode="&#x2C6;" horiz-adv-x="298" d="M274 556L235 632L165 556H69L175 700H322L367 556H274Z"  />
<glyph unicode="&#x2DC;" horiz-adv-x="316" d="M291 554Q267 554 253 561T228 578T208 594T185 602Q164 602 155 560H70Q84 625 112 659T192 694Q216 694 230 687T255 670T275 654T299 646Q319 646 329 688H414Q400 623 371 589T291 554Z"  />
<glyph unicode="&#x2013;" horiz-adv-x="527" d="M14 172L45 313H511L480 172H14Z"  />
<glyph unicode="&#x2014;" horiz-adv-x="737" d="M14 172L45 313H721L690 172H14Z"  />
<glyph unicode="&#x2018;" horiz-adv-x="277" d="M76 448Q76 481 89 514T124 578T178 634T247 678L304 619Q291 614 275 606T244 586T216 562T195 535Q198 536 202 536T208 536Q238 536 261 517T284 455Q284 433 275 414T250 380T214 357T173 348Q154 348 137 354T106 373T84 404T76 448Z"  />
<glyph unicode="&#x2019;" horiz-adv-x="277" d="M318 577Q318 544 305 511T270 447T215 391T146 347L89 406Q102 411 118 419T150 439T178 463T198 490Q196 489 192 489T186 489Q155 489 132 508T109 570Q109 592 118 611T144 645T180 668T221 677Q239 677 256 671T287 652T309 621T318 577Z"  />
<glyph unicode="&#x201A;" horiz-adv-x="277" d="M210 91Q210 58 197 25T162 -39T108 -95T39 -139L-18 -80Q-5 -75 11 -67T42 -47T70 -23T91 4Q89 3 85 3T79 3Q48 3 25 22T2 84Q2 106 11 125T36 159T72 182T113 191Q132 191 149 185T180 166T202 135T210 91Z"  />
<glyph unicode="&#x201C;" horiz-adv-x="515" d="M314 448Q314 481 327 514T362 578T416 634T485 678L542 619Q529 614 513 606T482 586T454 562T433 535Q436 536 440 536T446 536Q476 536 499 517T523 455Q523 433 514 414T488 380T452 357T411 348Q392 348 375 354T344 373T322 404T314 448ZM76 448Q76 481 89 514T124 578T178 634T248 678L305 619Q291 614 276 606T245 586T216 562T196 535Q198 536 202 536T208 536Q239 536 262 517T285 455Q285 433 276 414T250 380T214 357T173 348Q155 348 138 354T107 373T85 404T76 448Z"  />
<glyph unicode="&#x201D;" horiz-adv-x="515" d="M318 577Q318 544 305 511T270 447T215 391T146 347L89 406Q102 411 118 419T150 439T178 463T198 490Q196 489 192 489T186 489Q155 489 132 508T109 570Q109 592 118 611T144 645T180 668T221 677Q239 677 256 671T287 652T309 621T318 577ZM555 577Q555 544 542 511T507 447T453 391T384 347L327 406Q340 411 356 419T387 439T415 463T436 490Q433 489 430 489T424 489Q393 489 370 508T347 570Q347 592 356 611T381 645T417 668T458 677Q477 677 494 671T525 652T547 621T555 577Z"  />
<glyph unicode="&#x201E;" horiz-adv-x="515" d="M210 91Q210 58 197 25T162 -39T108 -95T39 -139L-18 -80Q-5 -75 11 -67T42 -47T70 -23T91 4Q89 3 85 3T79 3Q48 3 25 22T2 84Q2 106 11 125T36 159T72 182T113 191Q132 191 149 185T180 166T202 135T210 91ZM448 91Q448 58 435 25T400 -39T345 -95T276 -139L220 -80Q233 -75 249 -67T280 -47T308 -23T329 4Q327 3 323 3T316 3Q285 3 262 22T239 84Q239 106 248 125T274 159T310 182T351 191Q370 191 387 185T418 166T440 135T448 91Z"  />
<glyph unicode="&#x2020;" horiz-adv-x="288" d="M242 519L203 327H120L167 519L77 515L94 592L183 589L198 677H281L258 589L347 592L330 515L242 519Z"  />
<glyph unicode="&#x2021;" horiz-adv-x="288" d="M330 515L242 519L202 340L292 344L275 267L187 270L170 180H87L111 270L22 267L39 344L126 340L166 519L77 515L94 592L182 589L198 677H281L258 589L347 592L330 515Z"  />
<glyph unicode="&#x2022;" horiz-adv-x="358" d="M308 255Q308 226 297 201T266 156T220 126T165 115Q141 115 120 124T84 148T59 185T50 230Q50 259 61 284T92 329T138 359T193 370Q243 370 275 338T308 255Z"  />
<glyph unicode="&#x2026;" horiz-adv-x="828" d="M94 -13Q75 -13 58 -6T29 14T9 44T2 81Q2 103 11 123T35 158T70 182T113 191Q132 191 149 184T178 163T198 133T205 97Q205 74 196 54T172 19T137 -4T94 -13ZM370 -13Q351 -13 334 -6T305 14T285 44T278 81Q278 103 287 123T311 158T346 182T389 191Q408 191 425 184T454 163T474 133T481 97Q481 74 472 54T448 19T413 -4T370 -13ZM646 -13Q627 -13 610 -6T581 14T561 44T554 81Q554 103 563 123T587 158T622 182T665 191Q684 191 701 184T730 163T750 133T757 97Q757 74 748 54T724 19T689 -4T646 -13Z"  />
<glyph unicode="&#x2030;" horiz-adv-x="1026" d="M77 0L579 667H658L154 0H77ZM484 -12Q453 -12 426 -3T380 25T349 68T337 123Q337 166 351 203T390 266T447 308T514 323Q545 323 572 314T618 287T649 244T661 188Q661 145 647 109T608 45T552 3T484 -12ZM490 88Q513 88 532 113T551 178Q551 199 540 211T508 223Q497 223 486 217T467 198T453 170T447 134Q447 113 458 101T490 88ZM218 342Q187 342 160 351T114 378T83 421T71 477Q71 520 85 557T124 620T180 662T248 677Q279 677 306 668T352 641T383 598T395 542Q395 498 381 462T342 399T286 357T218 342ZM224 442Q235 442 246 448T265 467T279 495T285 531Q285 552 274 564T242 577Q219 577 200 552T181 487Q181 466 192 454T224 442ZM817 -12Q786 -12 759 -3T712 25T681 68T669 123Q669 166 683 203T722 266T779 308T847 323Q878 323 905 314T951 287T982 244T994 188Q994 145 980 109T941 45T884 3T817 -12ZM823 88Q846 88 865 113T884 178Q884 199 873 211T841 223Q818 223 799 198T780 134Q780 113 791 101T823 88Z"  />
<glyph unicode="&#x2039;" horiz-adv-x="323" d="M114 63L29 243L194 420H335L166 239L249 63H114Z"  />
<glyph unicode="&#x203A;" horiz-adv-x="323" d="M210 420L295 240L130 63H-11L158 245L75 420H210Z"  />
<glyph unicode="&#x20AC;" horiz-adv-x="609" d="M333 -12Q276 -12 228 4T143 50T84 122T54 216H7L29 315H54Q55 325 56 334T59 354H37L60 453H88Q108 502 139 543T210 614T300 661T408 678Q472 678 518 658T595 605T643 533T667 453L489 407Q483 451 461 481T399 511Q370 511 346 495T302 453H437L414 354H256Q254 344 252 335T248 315H406L384 216H253Q264 187 286 171T342 155Q371 155 400 176T447 232L597 154Q548 68 479 28T333 -12Z"  />
<glyph unicode="&#x2122;" horiz-adv-x="414" d="M396 447L436 629L331 447H323L298 629L258 447H230L278 667H321L341 509L429 667H472L424 447H396ZM185 641L142 447H114L157 641H105L110 667H242L237 641H185Z"  />


</font>
</defs>
</svg>
